<?xml version="1.0" encoding="utf-8"?>
<!-- Generator: Adobe Illustrator 16.0.3, SVG Export Plug-In . SVG Version: 6.00 Build 0)  -->
<!DOCTYPE svg PUBLIC "-//W3C//DTD SVG 1.1//EN" "http://www.w3.org/Graphics/SVG/1.1/DTD/svg11.dtd">
<svg version="1.1" id="Layer_1" xmlns="http://www.w3.org/2000/svg" xmlns:xlink="http://www.w3.org/1999/xlink" x="0px" y="0px"
	 width="198px" height="30px" viewBox="0 0 198 30" enable-background="new 0 0 198 30" xml:space="preserve">
<g>
	<rect x="0.042" y="7.879" fill="#F9F9F9" width="42.353" height="14.117"/>
	<path fill="#09599E" d="M1.807-0.062h38.824c0.97,0,1.765,0.794,1.765,1.765V7.88H0.042V1.702C0.042,0.731,0.836-0.062,1.807-0.062
		z"/>
	<path fill="#E59703" d="M0.042,21.996h42.353v6.177c0,0.972-0.794,1.765-1.765,1.765H1.807c-0.971,0-1.765-0.793-1.765-1.765
		V21.996z"/>
	<path opacity="0.05" fill="#FFFFFF" enable-background="new    " d="M1.807,29.895c-0.971,0-1.765-0.795-1.765-1.766V1.702
		c0-0.971,0.794-1.765,1.765-1.765h38.824c0.97,0,1.765,0.794,1.765,1.765"/>
	<g>
		<polygon fill="#00589F" points="16.41,18.645 17.689,11.188 19.718,11.188 18.439,18.645 		"/>
		<path fill="#00589F" d="M25.807,11.408c-0.397-0.132-1.015-0.309-1.809-0.309c-2.03,0-3.441,1.015-3.441,2.471
			c0,1.059,1.015,1.676,1.765,2.03c0.794,0.354,1.059,0.617,1.059,0.926c0,0.484-0.618,0.75-1.235,0.75
			c-0.794,0-1.235-0.133-1.897-0.396l-0.265-0.177l-0.265,1.677c0.485,0.222,1.368,0.396,2.25,0.396c2.118,0,3.53-1.016,3.53-2.56
			c0-0.838-0.53-1.5-1.721-2.029c-0.706-0.353-1.147-0.574-1.147-0.926c0-0.309,0.353-0.662,1.147-0.662
			c0.662,0,1.147,0.132,1.5,0.265l0.176,0.088L25.807,11.408"/>
		<path fill="#00589F" d="M31.013,11.231h-1.588c-0.485,0-0.838,0.132-1.059,0.618l-3,6.838h2.118c0,0,0.353-0.929,0.441-1.104
			c0.221,0,2.294,0,2.603,0c0.044,0.267,0.265,1.104,0.265,1.104h1.897L31.013,11.231 M28.498,15.996
			c0.176-0.441,0.794-2.073,0.794-2.073s0.176-0.441,0.265-0.706l0.132,0.662c0,0,0.397,1.766,0.485,2.161h-1.676V15.996z"/>
		<path fill="#00589F" d="M14.689,11.231l-1.985,5.074l-0.22-1.015c-0.353-1.191-1.544-2.471-2.824-3.132l1.853,6.484h2.162
			l3.221-7.457H14.69"/>
		<path fill="#F9A51A" d="M10.851,11.188H7.586l-0.044,0.176c2.559,0.618,4.235,2.118,4.941,3.882l-0.706-3.397
			C11.689,11.364,11.292,11.231,10.851,11.188"/>
	</g>
</g>
<path fill="#4361C3" d="M53.63-0.084h38.824c0.971,0,1.765,0.794,1.765,1.765V28.15c0,0.972-0.794,1.767-1.765,1.767H53.63
	c-0.971,0-1.765-0.795-1.765-1.767V1.68C51.865,0.709,52.659-0.084,53.63-0.084z"/>
<path fill="#FFAF38" d="M78.115,8.739c3.528,0,6.397,2.868,6.397,6.396c0,3.53-2.869,6.397-6.397,6.397
	c-3.529,0-6.397-2.867-6.397-6.397C71.718,11.607,74.586,8.739,78.115,8.739z"/>
<rect x="72.601" y="11.827" fill="#FFAF38" width="4.412" height="0.882"/>
<path fill="#EB3636" d="M67.968,21.533c-3.529,0-6.397-2.867-6.397-6.397c0-3.529,2.868-6.396,6.397-6.396
	c3.529,0,6.397,2.868,6.397,6.396C74.365,18.666,71.498,21.533,67.968,21.533z"/>
<path fill="#FFAF38" d="M72.601,18.004v-0.883h5.735v0.883H72.601z M72.601,11.827h5.735v0.882h-5.735V11.827z M77.896,14.474H72.16
	v-0.882h5.735L77.896,14.474L77.896,14.474z M77.896,16.238H72.16v-0.881h5.735L77.896,16.238L77.896,16.238z"/>
<path opacity="0.05" fill="#FFFFFF" enable-background="new    " d="M53.63,29.916h0.794L94.218,2.474V1.68
	c0-0.971-0.794-1.765-1.765-1.765H53.63c-0.971,0-1.765,0.794-1.765,1.765v26.47C51.865,29.121,52.659,29.916,53.63,29.916z"/>
</svg>
